<mxfile host="app.diagrams.net" modified="2024-02-22T23:28:06.381Z" agent="Mozilla/5.0 (Macintosh; Intel Mac OS X 10_15_7) AppleWebKit/537.36 (KHTML, like Gecko) Chrome/121.0.0.0 Safari/537.36" etag="KU1kHqldbfk4UX3u_1z5" version="23.1.6" type="device">
  <diagram name="Page-1" id="dTQW8nmdERcjblrk-pnt">
    <mxGraphModel dx="1434" dy="786" grid="1" gridSize="10" guides="1" tooltips="1" connect="1" arrows="1" fold="1" page="1" pageScale="1" pageWidth="827" pageHeight="1169" math="0" shadow="0">
      <root>
        <mxCell id="0" />
        <mxCell id="1" parent="0" />
        <mxCell id="3HkjhWe9T4AB236vjEX6-9" value="Infrastructure as Code" style="rounded=1;whiteSpace=wrap;html=1;verticalAlign=top;" vertex="1" parent="1">
          <mxGeometry x="220" y="70" width="420" height="80" as="geometry" />
        </mxCell>
        <mxCell id="4LUnRma8o_YQ2aAeQ-uo-2" value="Data Sources" style="rounded=1;whiteSpace=wrap;html=1;verticalAlign=top;" parent="1" vertex="1">
          <mxGeometry x="40" y="170" width="120" height="330" as="geometry" />
        </mxCell>
        <mxCell id="fKt6-CcrcbfbB7j15rGw-12" style="edgeStyle=orthogonalEdgeStyle;rounded=0;orthogonalLoop=1;jettySize=auto;html=1;entryX=0.25;entryY=0;entryDx=0;entryDy=0;" parent="1" source="4LUnRma8o_YQ2aAeQ-uo-3" target="fKt6-CcrcbfbB7j15rGw-1" edge="1">
          <mxGeometry relative="1" as="geometry">
            <Array as="points">
              <mxPoint x="190" y="259" />
              <mxPoint x="190" y="350" />
              <mxPoint x="393" y="350" />
            </Array>
          </mxGeometry>
        </mxCell>
        <mxCell id="4LUnRma8o_YQ2aAeQ-uo-3" value="" style="shape=image;html=1;verticalAlign=top;verticalLabelPosition=bottom;labelBackgroundColor=#ffffff;imageAspect=0;aspect=fixed;image=https://cdn0.iconfinder.com/data/icons/phosphor-thin-vol-2/256/file-csv-thin-128.png" parent="1" vertex="1">
          <mxGeometry x="81" y="240" width="38" height="38" as="geometry" />
        </mxCell>
        <mxCell id="fKt6-CcrcbfbB7j15rGw-11" style="edgeStyle=orthogonalEdgeStyle;rounded=0;orthogonalLoop=1;jettySize=auto;html=1;entryX=0;entryY=0.5;entryDx=0;entryDy=0;" parent="1" source="4LUnRma8o_YQ2aAeQ-uo-5" target="4LUnRma8o_YQ2aAeQ-uo-9" edge="1">
          <mxGeometry relative="1" as="geometry" />
        </mxCell>
        <mxCell id="4LUnRma8o_YQ2aAeQ-uo-5" value="" style="shape=image;html=1;verticalAlign=top;verticalLabelPosition=bottom;labelBackgroundColor=#ffffff;imageAspect=0;aspect=fixed;image=https://cdn0.iconfinder.com/data/icons/phosphor-thin-vol-2/256/file-csv-thin-128.png" parent="1" vertex="1">
          <mxGeometry x="81" y="360" width="38" height="38" as="geometry" />
        </mxCell>
        <mxCell id="4LUnRma8o_YQ2aAeQ-uo-6" value="trip_data&lt;br&gt;(yellow &amp;amp; green)" style="text;html=1;align=center;verticalAlign=middle;whiteSpace=wrap;rounded=0;" parent="1" vertex="1">
          <mxGeometry x="55" y="410" width="90" height="30" as="geometry" />
        </mxCell>
        <mxCell id="4LUnRma8o_YQ2aAeQ-uo-7" value="taxi_zone_lookup" style="text;html=1;align=center;verticalAlign=middle;whiteSpace=wrap;rounded=0;" parent="1" vertex="1">
          <mxGeometry x="55" y="288" width="90" height="30" as="geometry" />
        </mxCell>
        <mxCell id="4LUnRma8o_YQ2aAeQ-uo-8" value="Storage" style="rounded=1;whiteSpace=wrap;html=1;verticalAlign=top;" parent="1" vertex="1">
          <mxGeometry x="220" y="170" width="420" height="130" as="geometry" />
        </mxCell>
        <mxCell id="3HkjhWe9T4AB236vjEX6-7" style="edgeStyle=orthogonalEdgeStyle;rounded=0;orthogonalLoop=1;jettySize=auto;html=1;entryX=0.5;entryY=1;entryDx=0;entryDy=0;" edge="1" parent="1" source="4LUnRma8o_YQ2aAeQ-uo-9" target="3HkjhWe9T4AB236vjEX6-5">
          <mxGeometry relative="1" as="geometry" />
        </mxCell>
        <mxCell id="4LUnRma8o_YQ2aAeQ-uo-9" value="Data Loader" style="rounded=1;whiteSpace=wrap;html=1;verticalAlign=top;" parent="1" vertex="1">
          <mxGeometry x="220" y="370" width="130" height="130" as="geometry" />
        </mxCell>
        <mxCell id="4LUnRma8o_YQ2aAeQ-uo-24" style="edgeStyle=orthogonalEdgeStyle;rounded=0;orthogonalLoop=1;jettySize=auto;html=1;entryX=0.5;entryY=1;entryDx=0;entryDy=0;" parent="1" source="4LUnRma8o_YQ2aAeQ-uo-12" target="4LUnRma8o_YQ2aAeQ-uo-16" edge="1">
          <mxGeometry relative="1" as="geometry" />
        </mxCell>
        <mxCell id="4LUnRma8o_YQ2aAeQ-uo-12" value="Data Transformation" style="rounded=1;whiteSpace=wrap;html=1;verticalAlign=top;" parent="1" vertex="1">
          <mxGeometry x="510" y="370" width="130" height="130" as="geometry" />
        </mxCell>
        <mxCell id="4LUnRma8o_YQ2aAeQ-uo-15" value="RAW" style="rounded=1;whiteSpace=wrap;html=1;" parent="1" vertex="1">
          <mxGeometry x="364" y="244" width="100" height="30" as="geometry" />
        </mxCell>
        <mxCell id="4LUnRma8o_YQ2aAeQ-uo-17" value="" style="shape=image;verticalLabelPosition=bottom;labelBackgroundColor=default;verticalAlign=top;aspect=fixed;imageAspect=0;image=data:image/png,iVBORw0KGgoAAAANSUhEUgAAAGQAAABkCAYAAABw4pVUAAAAAXNSR0IArs4c6QAAAIRlWElmTU0AKgAAAAgABQESAAMAAAABAAEAAAEaAAUAAAABAAAASgEbAAUAAAABAAAAUgEoAAMAAAABAAIAAIdpAAQAAAABAAAAWgAAAAAAAACQAAAAAQAAAJAAAAABAAOgAQADAAAAAQABAACgAgAEAAAAAQAAAGSgAwAEAAAAAQAAAGQAAAAAPYM/1AAAAAlwSFlzAAAWJQAAFiUBSVIk8AAAH/ZJREFUeAHtXQnUJVVxvt3v/css7DtM2FEMi8gAOmBkVBTlYBKJDIoLJEaMR2JiALfE458TNYIoxiRGyGLUmBgmMUHjvjCyijDILjuybxJgtn973Tdf1a2qru7X758BZh4kJxf+vnWrvvrq3rq9v+6eEP6/PKcykD2nehNitvfvf3t0i/kj493OuvGQ55vnMdsuy8OusYy7l+XsoqwMO4duvlWMYacQ4/YhlgtRdzCOmZBnj+ch3A/bI6EsH83y/J4Ywj1lKO7MsvBQtxh7IsvXTHbHd55cMbF0OoQM5udWeU5MyNKJie50WLx3VnQPirE8MGThBbEs9sizbJdYltuGvIOcI3exSHUgWXKpNeeVdDIkVBlmgf4DJ+HXQEWTdRdAt8J6NSb6ulXj5Y03Tiybea5My7M6IUsnLhyfKde+sozhLVlZHhhDtgvStxDJpxlAjiKlPhVLvGmqSWEE9GZSoU2HIYMWcdZii3oIjZuzrLN8JsQLVp657EkN92zVz9qELHn/Nw8IY52/Rgd+rSywgsoE+KRqWpONUmQawWva2hLfpiMKx0F8+D/rdLE1xZ9jazrjsjOXfVNZn4166BNyxMQFO8fYfRf2Pqdh/z+Pdyc6ckuWbBmcO02g1u1JTRSKQa1iJbROhgFp95ZlvVDGf8263TMX3RluWr58WaFdG1aNY+DwyosnvrV5LEc+HXvlGbHszT0Z3C3NqtZQ2qQRoC3xg3SOw/ycDseZWBRdrApvjkXvi/fsXr6SuzDkxfAmZGIiz2P4SlmUy7BVjNXGaUl2W4bTGdZ0pBmUeEVLsqlyea/8vBKyNmliyvKgLJR/f9ipX9pD2YZVD21ClvQOfUcWs2OxGjZ2k5SJrIdT1PuxL/8Z/lZmnexunBxN1ZJQmwxYNIEmuKSajhgMmGTfJDPZTSdCLDNsLYvysc73Dj3j/B0ZNqTFUCbk0DO+uSP20CeXvdnGsCgB2bq80/lbdOQNM5OrX722l70qj+WxeZ6fhd36I+xQmwxKoGbQ1SpW2XU4YiE/qQ2jOtVTLSXF2LsTe2fgbLCr6k1dDyVQd7x4foz5IslIGlMacIHE/3OvmPnwT//8uMfcYB9fPPGNO0dmYsSl2wewI5NdXFsCW3SWeGX0mDYdOzQmEM2yhwN955g1a+79ArxuUM9NWQ9lC+lkI1vj2mKeDUTX8Cw8UJblPzYmg2ErJ163LobJv0FGHkx+PqmSQFvrCaG6FplNtFAMahUrgRxdSRgc73YaDyMHwtDY1TroRhSHMiFFiTU94GqZik4GJSLLH50dy29Jhv7lFR8/8WGk4eds6UtgSljyMqPjJ4tinN10YueKcG0YXKrGuLBX9vbBbotuz2zyMpQJ4VHQeG3Q6WwKV8vlaJiUmWofKxJC90vE6GoVdQ0njOEITm2pxbvSOX3NR/TODz2luwZbzHvs+v9LE0LXVzxKrk0q4zZhamw3SkNbOeJ9F2xWluH5yWZeFZVyqslIoGCdN6iOQKJfz2RoXFop7tlmR09mkTa2MJQtJIu4Z5vhKgTFRoVkxFDuEvPwZkp8c2D7TZw/WnTLk7Gr28V5OdGYPGuSvYmJoTCdCY2QivH2Nl3DbSM3hzIhOKunyy3+L+VHBh3DKCbl7b1u+cHF7z9/Vx3bUe///habTXbeGYridHjOT3pKjibL/J2OUISROglOp3pSEU44GOf9CEdFdak1rOVQTnvTYCQBtUTAUsYtcWr7RyP56BuX/PEFdFt8Zk1v1b5IyE6YjIWWCM2fJZospkyyb7IjFKYTweI7fzYZ0HGpbignWNzjIU0IjiE0NkuGDJQrPsCPhbK3B36ESrcqRM89JEeBO8FxEUoxBnQ6sVNVK4Llqs3P6+Y876ixPtPGUHZZgedDB6g1dd3L0mSV6lGrWAlPfzJshZC01WJJf/p02IgFPoxqSFsIhsKjkuw2B11LlGBsrZdEWaV2UTS5Wv0aPhvKpf3CPZxhleFsIbjPix+AXFacWBup6lGrWAlAmjLJ3GzTEanofVhSUxno57jEL2mGt40MZQvBzcKyzPIpnMJOcjJshcNwacS8BrLA+aIfWKvnDwjcxJFKMbi8TBdvIxCEmbjaivDUTKpzPrXJIPBw1luKNJQJKUZHrs2K3ul5meMmIV0kSt6oB7zy0cLpSD+wkD+KVCTG2FuM8+q3I6U4K5PE1rYM1TGaFlKgZ5PYSVubDNGXG9o35X369VAm5IqJY+5DF5c//W7O7bnk9H9ZE/PyLTiFTqfJG3MyaE7w7NGwylAmRAbjVsONPLwcM4BHV7hs7MngTajaQuJtrx0LnZEtQz6d9mPrGmOhy1jSbT5/Jtzz0Lqw5PIp7JE3eOxPaUKOP//8zv3XLlhU5tmiUBZbY98/gmM17bmj34VQF/ELIDpR7VfwnFU1KgJIyXAnWGWqcTHYilMuvQWjbfYpysPQg9HWYTO7DwG5qZMuJJRgmxjt5Ejn4DBbfCQU3S159+YzSDxTOLjhDCasm3osbLvF7eH2Y66KtxeXh72+e8eGTIyn05B99eJTzh3pbr/zq+67Pn8zNt/98zLgycFyHKtlh39C0rXTPHGYdXORMoCOylglI4zmB+CcX1JiF6HTUpsv8OI+TIK7iYtxFMei6vihgfqSCkVTt97JIAd2SmHzuDnaL0I8PDXp9F6mA2MaP1bWYhXG8otw+2u+FB+ZOi/bfsWaRNS+nHtC8GDC4TOHHogb0H+FNfOIssBPsLj9mrqB5LCAhXVmUAcJox1QoU0HjHIxrA2DwSqFCuqjIahWf9MplzlbrKQRPVeK0dpINNHmmyweB9maWAnLsAUwLwwj4VPhidGXxwded0K28zeaOzoLMPB8Dj/ILDy8POS92Aa+jd3NEWUPD7NhMrQDVUyVtAailiDozaRCm26QH/nM4deMRViGqw/1uEUnfgklWK5E1pjaJBotPibJhplDnuGt5tiwevrH8bajD4ab7gOUlevWCVky8Z2tZ3qTn41F/CjuuO7ICbZOYMtQCqdjFRlMR5pGBxVUEbAmqU3p/Np0hBZ9M5aZ2vycTvySRrnM2fGTbq7iOFvHSr4OU2BSeuXiUMRPhttfu2cbc9+ELHnv+fNCUf5pGWffRscJdrKBzzEZCehioCPWFxVadGQyfnJXjPp4nchcNexmaui56XRPaTLIz/lSDC3EY6YWmW0C8HKJLaNXviLMzJyhVL7um5Bs4YIT8LTFSQiWfrK0ZMlkELnTMVlNRxoouBMiK6hP5+0iM8aAUEK2pggW3/mzyYDOz+nEL2lEz5Vi2nSgsl01xUNpxlf31r6yA7vZONg/+514/SuPTYZqWZuQpRPfWoSzng/BMf2CZ4HdllGxViymIxV65zvIqBYdYYy/6cdOBOjnqvkIjuPxolI0deKXUIKtYebQaXf6aviImxOAauFq4so4Ekayz8SrX7udp60mBGdU00U4E7upffh+hg3cTYbTMQkFMZ3IzcBtSTVnFshRxsCEolQdNYXUx2KdYsTOni06+BEioQTLlcjG72KRjswcs0oTh+CF2L3MdLzQYAkuKlNSm3jLuFcYmz4pgdLSIh1evHhx3u2eyEBHUIkqaU0E65NhN4gJqTPWC49Rpdc5PzVrzSZvVz+nk8lQF65rfoKt6WpoNPTs0ukthAmV0VQQvEwIbouyh7oMx8Wrlm6rzjwh9AYTLrV/r5jB47S8RphnIphTJ9hmYIrcp6MOmZIagiGd6lUnvFRRMT/BMlx9GOC42IN9KkSbn1i5qpD9KyVuXd54k5Diiq/WF+qbmGw81DZlJbfHwVbSeYky8IRMT++/Nw5ch1UHr5ZNXAM0SQd1wvojAlU2EAoPhWG0O14nRvKp+SXXurP6iQ/Tu12tBmKzYqSu6dhRO8OBcB+kyEO+brv9mptJ0x9t42ramEoXid/GFLcOeXxJvPH4UTLwhOT52GLck9hdkI5XiFsHRGjYFWIC6VSptWBTAOdHdsWgVlEF41F/xRiwwUU4FPhVCJG4Um2bLvlVjgmD5XTezR9ZqvutoqScpYs6hnguWLT02QRHdj8uvL2EY8mhoXhwAZnypRNfGC+zbDEuHHGfsmUgVQ+JiXyqYk0VUKtYCfUOkJ4xBgSf6oja66tQLA30cz7PZDIsnPBx4uJa3Be9b2JiIh1I8g4lbqy9m+pHRC0yq+t9Fdi+oTuKe2SYkN7UdvOyWO4PgupJNptBR2o6ZgVciV2tonUGCsOpn9RUcSGMk0kkH/Mjo2IM2K6DT4UQiSvVDtBZLA5OC4uPe3iP4WWR21g1gT3KbLE9rrR55bV+sX8Ldy12xUlc1fi4tQhvw+xGUj47nmPGs72qu65C7IbGgdmPFrArxIQWnWHUUTHeoDrh5aphN1NDz02ne1qTAXJHYQ2bIOyZ8nDNopdtxRMSjj8eu5dsL+yw3E1ZR9Dskyc3TorpfAiTIcoIbkCi5EUxux0mA49rohjQOZiOEdZnJzjR+fnOkOxNKZjT9RklGPWpEpOkXM7Q7CMB2awYqWs6AyVaC6Q+SE6GA3rMPr98mbz8Ofn4POToEMtTBW3Eo/jO6GWLI/EJRve4yt5i0nS7vbAHIuNBNSWQmivVOWcSjRR2g5hQ7wwB2OTspvNcRKsYqQf6KS75VK02vzadj+X6YPGx0mIysN6efflfnnIRIbjMy/bA2ry4Ot9q4WaV6MnJcdZknwPKfZYdQfAufsXaq9rzOqKURcKgQG8mE/p1PnifHyvaufr8EswFcH4+vpO1g6xSvdQ1HfVD7U72faBf/LLwnzEs/HgN3M3eBlfs4p3/XNye0/uQbBQqxz2pN/Qa8J5p5gTBlaHh6GRjgc7UJhCfK4rxdtURTPRt/Gxq83M68Usa0XOlmDYdhVX74D7kWeeHRdk79crPvWUVoajEm1+9B6pTA11da2FxA+OYGwQvGxfeA0Chc+Bd6EW+qni50lYsAwkdWDGeS3UEE30tOeLOpjY/p3u6k6FxOVS9D3QBiF333dh1fH12NHxs5afe/UvpUYh3HLVF6GVn4+xqpOo7WV2fvFwbFzAGa8hGYQBsIXm2Ex8/WFcZWtckYjaICl4nEdikdq+zHoCnYTdTQ9/kerqT0RcPZ1D0P75Ag/oW9OdrnRi+MXrDg1euWDHRo+5QiXctHQ8z+bswGUfbnYwBfUoObf1npv7ceR5x6+IK/VcSskHE7EKUIg0gNCAEcHiagX4CwgEMT6cgH3j+AU83IjP4ZBLuGykJwxwhkqote2KihkFDASZ4HSLgEXuw4KZddjse0rgY7Qs6a0evG9n1XnyyqZoIG9X0yBtA9UFMBl9JJ1oLgngDZCIwk++DKM2muKToYm+1pedkFgOrgFrFSlAmCo2iGAM6ndipSmUyzzsPYBfxUwzoMtzYvKGM5QNZMfJk7PVs7VRwf726odIXsJr6BgzN6ZHZorNu/tqV550y229NmhiP74Qbntw5jOZvx0S8D6el1RvE3qk2VN8AyJKqeSFHwRhUbabALisW2C9i2+WiAGooqEVnwZLX3JOhPIiC3QOuea7FRHwZd4S+fsWCW+8IektCqZ7FmifijlV7hFtXvSaMxBMwGS/lawTtkx83D6sam0KqXJCmLXeKVFudA98lyqeQpXQrwGwqqJOQc6W2uYjVr8Jit4TDVf6VrNP56Mj87e5YMfHy1i0hxok83HHttqE7s00oR/kOqEaq17KCN9dzrF5WarZaI0Gm8DN1LObj9vcOuAB4Xrht9SEwHIjfvPG1Ojq9Tbev0rpZjaVa+4FmtbdZdLFRW+wGg8CyKdBOchfbxi+xT91VfSpnB66MLpoEahITtqHDZBR45/Ocy85+U98P+7xW3r5mQRgdOxS3094U7rnuyDBGT0aO4n19CUd81GHakFWWn/zDWHXIYSPHFj+c1FvBw2VVgZ5MdFTAcYwLnc7SFTPp6S8t2FST2SZqrlSBWsVKqIBsE4CXCeG2vC52H/eGIts1sSmj1ox2pA29bzIKCtZ5A75BlYevFiMLPlERJSne/1svCvcVvx7G570RndqXj+cFfHnbEQ6j8u31yETvBlmTqYMbytnHwwpapFKLYUqxubbFc7oWkVTdWJSPJpsO0nu36QgNPZsa2KYOHcYtiF90ivwTPzn7uP9OceBKDyzPn/8enEr+Nk6598ZfOr83OhH6+CS2VeaQ+mQBBuit30ZQH0dfPMfTl3y1oVbR0aauqE0AXDmwbws/zrIynO1gp+WNzOYcE7ssoe8zqc4ZQJh38A5NFj976SdPvFEp4l0nj4fu6r/AfvodmBDZXzg/A5Lg9CxK28sM8zgnNyfATCJw1SLPydnWL9JRsQBJ9s2mvS82A3Cl3gl30z1m/3R0jdivGTZAHwmyJ0+8vG/GNN86vqD7BVXFC5d2Q3fNB3D2clI1GWL1HCyrF+o+mwP4/nnZ+ko8wJuLCFytRxZXqrh4H1L4eCYP4kwUrTzUuYyuwTATmIo7ZTUVDyVEbUHIRG2pBdmqIx/80SluVhb/tGJiWfW09z5b/xom/j3YReFNKi3KK22LwUI9ptkUKxhqtvaVDcIhslUt/GSrZk44XYw+Gzs0YtcpKpeWeKSiftME5OFqYsvxrapf4GFqOQX1wcmsBXo2eXuLziclFtNZL/6HMTzwuvng+DtsGVvVOmm8g/gkpuGEsRZLMGxSHmo0ZFHJYOpjIoqBnHPYvE8znnVLBMa2yDlmpCgvoe7h+2HjuInG36+ldiqtQYwdGMi+qX6uxmu3d+TzO/ebaqb7epzR4c6yatbDYTiHN9EZnVjvl+cXEFctMvOKnmQnJpNTNHPDAHEymAkVmVeZjwi0hYxmV1Arx/svq3G6eXfabqBpBuwjgsJ0JvT54ZbMLfOx+VGQeNUpI/g8+G/g92hqorRwMJXweVng7MayYCqFSa39UmWTU/VNzibO58PLzTFYt0TwPF7uiwdjWT4Zig5/Fyyfml2Dd+AyfEQMhtaAxMaMqVZRdeRjfoqlW3/xgc70tmlXuNPDeKWhfF668CU89YqKCFwNkJlbbVKzK2QftyYrtfo1YhmWcA1O7ZPGoJqKxxHG3FpktgmgKXsekmnriOHmMFnw7f78uIVvxRfE4nVQ89pMsTma8KV2U6fB+kDSUZzyxrD6kel7072HooMve+b0KpjYhc8q5TMFCSiO34nJ5pZmM6EyssrrnezEWizybibOGOFkfg3ZY5jDFmIxxzp/Fq7BM7588pNPTGRlN8/oCP9w8tIg5KwEbTqJwZVgGZ58cOMqTQbZY7YFXvwZNzoSxMViON9kSzxGr86UKEtWU6ZYHDAJJove/KhNRgagrosVf5/BucDX3EXgqkVmGgNLbFKiZNkT+FsRFq+cpCb/bLh2sns9nkS5gyN4UkJQ1KaumRSBCZC9aotej17KlJtJrmM6oia/6pmXjN7HMXu1l9nPFv3uHuvH4mV2B9Cwc8gWSsBcOZknn0AoTTnGu6C9HLfU2IEn5JrPvP4JXFH/V57T40ZCRM4kc9PpPKFiaxjywV+1fRAP9pQEIluqktCQ0ezrMOm4kC85S/Gy9kPJGSZYk7VNtZeVsFF7fpLFhYWmzG1RDpKJvslJt3bz7OvZwZfhpCoVnhASy5h9BR6Pix4VmD05GTyhAmsYbqhljlpwNV/idy5eJrVv1/oBQ83WBM/B6Uy1sTX5Pc7kvqDSjxY9+XhOkulgnmcPhzh9rlGSShtXfnLZQzi4/wmusIFO/9dHqkiqKWgTQ7qkTvbaJtKweVwypQ43ObytRbY+kE37IzhWEZ9yepnUojccCVScvsYJPfmwWWqVzY0VzDKQX+NmGX6HCu/ODln5YHJIS5sQas6bv8M/4PrhR3ouZkDuiAaT2ndGB1HTmXcSvM3LZNVOmswA8Rsg9yUrwS2hzq3Oz0EU3B/b/CBsiGx0AqaqbzwSTvV0vMjDueHJ0QuqjiSpNiH4FW8Kt2j/DEf9h5rA1HZBq946k42gxX2Ar3aSPJruNZs3QrZmQzYeARhOu+QUnr8iTEAHq0wtSq9iT6fw/CrTZHSzH+KX2rOyl6/o+9W0NiHEt2oBHfGzs7B/S18bUCLtFcdzQUnf1LFPyy5rrg7PaWuLRw4aW2SrBN/aLwKh2LhEroXQBmrDiY6rpqxtqZv8mjv6rkMnuzD0en+YHXzpAwRrlr4JoX8ga12cPQ+nwR/GxKxNv3BqQHJ3QS0hTmcDaIYi1wE40s9pUy7CDZBJzTYBNOW5+JWSOSxAPZbxC9jBWDOIXzvcyVbh9tE5YbY8KTvsSvt9SNis6psQslx39tvW/uTsEz8d8+5x+AeaHsbE1AfL7uiRHzTp0ClSNfuqcK5pMbDzc9k0HhO4IBKNq/XIGxybYgkX+VCxJtlUIUqzEc416ExqFCnOsxtwHvubOGZ8IHvJFfeR96Di3nPoh1xx1gnfP/yMLx+F7ey0LC+PxMNs+AJOmI9nkfFVJkTjR1ApKgp1JG1OfEaXlC1L3+GmuWZzA6MMWLMhE0eWrcZlJ/0La4aqXQdxX8lKZukvAfQHS2jrNmqTkgrFUx/nzzoB8d6ZMVhwYxpuT8DxpjBV/HvYYd53sz1W4OG89Zc5JwQDjZfh383Y7/iJd262+177d8r8EHThV0G7E/6ZO/wOnl66ok5rn2k3ySXPbtrzqK3Klee5TviEe5kgvu1lTohyUHJa5Dx+BwfKz4cil2d9cKz0D5moS612Owc6tGrO0xMWDmkGD6rs5Kux6P3DDm4ZlbiDvqbzcPjRxQ9nE5qQymUuae4JEc8bl0/Qjcer8VDbNUvDbqOrJxeMzVs160bU/8//FeNTU8uXnaz32+Fumawnn2L4CfDyXJNBflToa6f0XEDsXJo9/9v8M2gy/O9cbtCE2NDwlOEKfDMN7Q3a/MyPv+bl5q8y1CfDT1ptMmoOqcHzK5OMf74nPNntxPPxCOimKMcvx3uxtc5tiijM+dQmZGN0w28BXq5NABJtG5QmnYK3yrRPeVGYt+4Pwv6TPfdVQezO3QZa6zt2q7Jnral9g5791nVo5ZFXxfO3vyhbtnwQofd8RvKQJgQrLj/UblmubxnPfGJeirk6opZl4tTdf40f+aJutNpg0C7SCYtOWl6cExb+DIfT2nQ/o8QPch7OhBRYseQMjDtSS5BmgCwuIU1ZzJYxdnO+fNrH7IA4fY2HQgyyQW+mhkzvkIR98He7BNh0lW6Umy5Ck7mWEBgtCV5uUfapnMJzepliO9gGTwb5cYEzbUn0AgvNxxDKcLYQHgi2f58sL9fWYiTBkigCVy0y8RqW5FrD2aD3prniGU4ErnTfxQPZpIvhbSE20GbiqK1jNEEVzqYqh2FR2k7NTtaGYDJxSJvW/NroPUhkrrCgz/INqQxxC2kbEQYrYzerJoEUg2S2OceBW4ZykAMV+EScsneze3AxdwnuKz0RxvJ9w0xxCJK+LWyYIuH1sZPzUJZDnBBKhgxWh2ZNEaydcmfJYbwzOlHzp5S1di0enLLsSaT8c6Ezc3a23+XV0/jXvexluMD8GJ4ePJwnhfl9EGPf5EJto93k0SwABuuTRWO3JJCNgLxIlYjszn5qo9rJNc6aE3D02nP+tbBw5Ew/Gcx5wEWX4PeJD2HHdE8tNhlTvCzcNzmU3dZwJoReO/D74VqufIMSwFmgheXaBA/1yddJSV6SRGsk9yzQc0//lu31g777PDgjL7MX/vhibEE/TTdMxbcWQ/k2bT2cCeliQnT9qg2ylmHLe33IgmmdKE2c82jyawj658Bn4p0O2Sb+3K6Xmjxt6E2gG86E4IdI7LtxS1qzg5GQbM0WmW0CGCRTQpqclqQGJ15gxN2C9teb1SeP8i66xFW9v+hU3SaqhzMhvXg3+o/fB6T4JNKs2PgbMsHZZgBVJCLP4+U2ziJuhu/AHZ4c+5fxxqULcWNkSd9r0DXefr+NrRnOhOz7nbuxb74Uv5zV1+hm4mx0MgGcDDcZPjlermYUDMCbiwkUdxy/U7wpXrsUX8+rl3jZknlhavZ38e7KAWap+GfwG8e9Yel2Le9VG3qjCbpn32iEg4jiLUfTF9Muwdd0FiZMS+I4f5JEL5NDlaC63JwAcbdZqfPQlcZFeLLmXGwJ14bZ6ckw0t0RZ1/H8DuPZdyB++ZjdcL9+AXqrdkhl16Y+r1pl8O7DnnekuvDrZedirUNb1GV+MaKDkwEnzgvE8wnyMtPZTJSmAxbwZF4re4gbLGPh5GRHk425mEytrXX7Dw/ra5ZuBifRuGXabTHm7Ie2haig4i3Hn0OEvBunAaPtK7Fc03GXBOQEi5h0PA8ZhOhZjMjfCFrkx9myx7BSxqLs8Mvx1YynDKcY4gfS5z+GG5dfAa7jjV8KlxLDgE1IyQ2ZGtCMLnuwoZWmyi58jLFlFL5Fbi1cil+Gj5qmJNBvRj6FkJB4yM4o3li7GhsKR9B8wA7s2lOAIG5IFOWrDlkwg7CmU0APhbboKds5HjKIWZfhHx2dsjlN5NpmOVZmRAdYLztxZuH3sLTkIXTsTXMxwQlk0+Wlynb6004UTRwojJn5jCihKfnp0L4Gb4cd9qwDuAUsFme1QnRzsSrX7FbGA9vxA2M1+DgujsStwOumOlLqfQ9J4E1kqxqtg6yCcg4LCIEfIMlRPqmIh7pjDfgqcKvhnzhD7IXfm+top6N+jkxITrweBW+bTg/vABvpe6Pa5b9cWW9Ny7WdsNuZEfs1rbBGVrqL31WlXLNf7pVEYtMAMHoN3EdXcLTs8qP4A8HaHrrOL8Z8Bvxpv714aBd78yyTf8AA/VwfUW7vD7cUO1YofEv/y0dw7X9eJjF30i5WSjzbXhiOgGfborbQd4q9IotkXV83BifCKE9Tonpo987QqAnGR/HpPwSp7kPY8u7Hx8kezR0Oqvwaf1JnOhOhcnV03g3YygXe08lef8DQmyyiUa3nUYAAAAASUVORK5CYII=;" parent="1" vertex="1">
          <mxGeometry x="265.8" y="420" width="40" height="40" as="geometry" />
        </mxCell>
        <mxCell id="4LUnRma8o_YQ2aAeQ-uo-25" value="" style="shape=image;verticalLabelPosition=bottom;labelBackgroundColor=default;verticalAlign=top;aspect=fixed;imageAspect=0;image=data:image/png,iVBORw0KGgoAAAANSUhEUgAAAGQAAABkCAYAAABw4pVUAAAAAXNSR0IArs4c6QAAAIRlWElmTU0AKgAAAAgABQESAAMAAAABAAEAAAEaAAUAAAABAAAASgEbAAUAAAABAAAAUgEoAAMAAAABAAIAAIdpAAQAAAABAAAAWgAAAAAAAACQAAAAAQAAAJAAAAABAAOgAQADAAAAAQABAACgAgAEAAAAAQAAAGSgAwAEAAAAAQAAAGQAAAAAPYM/1AAAAAlwSFlzAAAWJQAAFiUBSVIk8AAAH/ZJREFUeAHtXQnUJVVxvt3v/css7DtM2FEMi8gAOmBkVBTlYBKJDIoLJEaMR2JiALfE458TNYIoxiRGyGLUmBgmMUHjvjCyijDILjuybxJgtn973Tdf1a2qru7X758BZh4kJxf+vnWrvvrq3rq9v+6eEP6/PKcykD2nehNitvfvf3t0i/kj493OuvGQ55vnMdsuy8OusYy7l+XsoqwMO4duvlWMYacQ4/YhlgtRdzCOmZBnj+ch3A/bI6EsH83y/J4Ywj1lKO7MsvBQtxh7IsvXTHbHd55cMbF0OoQM5udWeU5MyNKJie50WLx3VnQPirE8MGThBbEs9sizbJdYltuGvIOcI3exSHUgWXKpNeeVdDIkVBlmgf4DJ+HXQEWTdRdAt8J6NSb6ulXj5Y03Tiybea5My7M6IUsnLhyfKde+sozhLVlZHhhDtgvStxDJpxlAjiKlPhVLvGmqSWEE9GZSoU2HIYMWcdZii3oIjZuzrLN8JsQLVp657EkN92zVz9qELHn/Nw8IY52/Rgd+rSywgsoE+KRqWpONUmQawWva2hLfpiMKx0F8+D/rdLE1xZ9jazrjsjOXfVNZn4166BNyxMQFO8fYfRf2Pqdh/z+Pdyc6ckuWbBmcO02g1u1JTRSKQa1iJbROhgFp95ZlvVDGf8263TMX3RluWr58WaFdG1aNY+DwyosnvrV5LEc+HXvlGbHszT0Z3C3NqtZQ2qQRoC3xg3SOw/ycDseZWBRdrApvjkXvi/fsXr6SuzDkxfAmZGIiz2P4SlmUy7BVjNXGaUl2W4bTGdZ0pBmUeEVLsqlyea/8vBKyNmliyvKgLJR/f9ipX9pD2YZVD21ClvQOfUcWs2OxGjZ2k5SJrIdT1PuxL/8Z/lZmnexunBxN1ZJQmwxYNIEmuKSajhgMmGTfJDPZTSdCLDNsLYvysc73Dj3j/B0ZNqTFUCbk0DO+uSP20CeXvdnGsCgB2bq80/lbdOQNM5OrX722l70qj+WxeZ6fhd36I+xQmwxKoGbQ1SpW2XU4YiE/qQ2jOtVTLSXF2LsTe2fgbLCr6k1dDyVQd7x4foz5IslIGlMacIHE/3OvmPnwT//8uMfcYB9fPPGNO0dmYsSl2wewI5NdXFsCW3SWeGX0mDYdOzQmEM2yhwN955g1a+79ArxuUM9NWQ9lC+lkI1vj2mKeDUTX8Cw8UJblPzYmg2ErJ163LobJv0FGHkx+PqmSQFvrCaG6FplNtFAMahUrgRxdSRgc73YaDyMHwtDY1TroRhSHMiFFiTU94GqZik4GJSLLH50dy29Jhv7lFR8/8WGk4eds6UtgSljyMqPjJ4tinN10YueKcG0YXKrGuLBX9vbBbotuz2zyMpQJ4VHQeG3Q6WwKV8vlaJiUmWofKxJC90vE6GoVdQ0njOEITm2pxbvSOX3NR/TODz2luwZbzHvs+v9LE0LXVzxKrk0q4zZhamw3SkNbOeJ9F2xWluH5yWZeFZVyqslIoGCdN6iOQKJfz2RoXFop7tlmR09mkTa2MJQtJIu4Z5vhKgTFRoVkxFDuEvPwZkp8c2D7TZw/WnTLk7Gr28V5OdGYPGuSvYmJoTCdCY2QivH2Nl3DbSM3hzIhOKunyy3+L+VHBh3DKCbl7b1u+cHF7z9/Vx3bUe///habTXbeGYridHjOT3pKjibL/J2OUISROglOp3pSEU44GOf9CEdFdak1rOVQTnvTYCQBtUTAUsYtcWr7RyP56BuX/PEFdFt8Zk1v1b5IyE6YjIWWCM2fJZospkyyb7IjFKYTweI7fzYZ0HGpbignWNzjIU0IjiE0NkuGDJQrPsCPhbK3B36ESrcqRM89JEeBO8FxEUoxBnQ6sVNVK4Llqs3P6+Y876ixPtPGUHZZgedDB6g1dd3L0mSV6lGrWAlPfzJshZC01WJJf/p02IgFPoxqSFsIhsKjkuw2B11LlGBsrZdEWaV2UTS5Wv0aPhvKpf3CPZxhleFsIbjPix+AXFacWBup6lGrWAlAmjLJ3GzTEanofVhSUxno57jEL2mGt40MZQvBzcKyzPIpnMJOcjJshcNwacS8BrLA+aIfWKvnDwjcxJFKMbi8TBdvIxCEmbjaivDUTKpzPrXJIPBw1luKNJQJKUZHrs2K3ul5meMmIV0kSt6oB7zy0cLpSD+wkD+KVCTG2FuM8+q3I6U4K5PE1rYM1TGaFlKgZ5PYSVubDNGXG9o35X369VAm5IqJY+5DF5c//W7O7bnk9H9ZE/PyLTiFTqfJG3MyaE7w7NGwylAmRAbjVsONPLwcM4BHV7hs7MngTajaQuJtrx0LnZEtQz6d9mPrGmOhy1jSbT5/Jtzz0Lqw5PIp7JE3eOxPaUKOP//8zv3XLlhU5tmiUBZbY98/gmM17bmj34VQF/ELIDpR7VfwnFU1KgJIyXAnWGWqcTHYilMuvQWjbfYpysPQg9HWYTO7DwG5qZMuJJRgmxjt5Ejn4DBbfCQU3S159+YzSDxTOLjhDCasm3osbLvF7eH2Y66KtxeXh72+e8eGTIyn05B99eJTzh3pbr/zq+67Pn8zNt/98zLgycFyHKtlh39C0rXTPHGYdXORMoCOylglI4zmB+CcX1JiF6HTUpsv8OI+TIK7iYtxFMei6vihgfqSCkVTt97JIAd2SmHzuDnaL0I8PDXp9F6mA2MaP1bWYhXG8otw+2u+FB+ZOi/bfsWaRNS+nHtC8GDC4TOHHogb0H+FNfOIssBPsLj9mrqB5LCAhXVmUAcJox1QoU0HjHIxrA2DwSqFCuqjIahWf9MplzlbrKQRPVeK0dpINNHmmyweB9maWAnLsAUwLwwj4VPhidGXxwded0K28zeaOzoLMPB8Dj/ILDy8POS92Aa+jd3NEWUPD7NhMrQDVUyVtAailiDozaRCm26QH/nM4deMRViGqw/1uEUnfgklWK5E1pjaJBotPibJhplDnuGt5tiwevrH8bajD4ab7gOUlevWCVky8Z2tZ3qTn41F/CjuuO7ICbZOYMtQCqdjFRlMR5pGBxVUEbAmqU3p/Np0hBZ9M5aZ2vycTvySRrnM2fGTbq7iOFvHSr4OU2BSeuXiUMRPhttfu2cbc9+ELHnv+fNCUf5pGWffRscJdrKBzzEZCehioCPWFxVadGQyfnJXjPp4nchcNexmaui56XRPaTLIz/lSDC3EY6YWmW0C8HKJLaNXviLMzJyhVL7um5Bs4YIT8LTFSQiWfrK0ZMlkELnTMVlNRxoouBMiK6hP5+0iM8aAUEK2pggW3/mzyYDOz+nEL2lEz5Vi2nSgsl01xUNpxlf31r6yA7vZONg/+514/SuPTYZqWZuQpRPfWoSzng/BMf2CZ4HdllGxViymIxV65zvIqBYdYYy/6cdOBOjnqvkIjuPxolI0deKXUIKtYebQaXf6aviImxOAauFq4so4Ekayz8SrX7udp60mBGdU00U4E7upffh+hg3cTYbTMQkFMZ3IzcBtSTVnFshRxsCEolQdNYXUx2KdYsTOni06+BEioQTLlcjG72KRjswcs0oTh+CF2L3MdLzQYAkuKlNSm3jLuFcYmz4pgdLSIh1evHhx3u2eyEBHUIkqaU0E65NhN4gJqTPWC49Rpdc5PzVrzSZvVz+nk8lQF65rfoKt6WpoNPTs0ukthAmV0VQQvEwIbouyh7oMx8Wrlm6rzjwh9AYTLrV/r5jB47S8RphnIphTJ9hmYIrcp6MOmZIagiGd6lUnvFRRMT/BMlx9GOC42IN9KkSbn1i5qpD9KyVuXd54k5Diiq/WF+qbmGw81DZlJbfHwVbSeYky8IRMT++/Nw5ch1UHr5ZNXAM0SQd1wvojAlU2EAoPhWG0O14nRvKp+SXXurP6iQ/Tu12tBmKzYqSu6dhRO8OBcB+kyEO+brv9mptJ0x9t42ramEoXid/GFLcOeXxJvPH4UTLwhOT52GLck9hdkI5XiFsHRGjYFWIC6VSptWBTAOdHdsWgVlEF41F/xRiwwUU4FPhVCJG4Um2bLvlVjgmD5XTezR9ZqvutoqScpYs6hnguWLT02QRHdj8uvL2EY8mhoXhwAZnypRNfGC+zbDEuHHGfsmUgVQ+JiXyqYk0VUKtYCfUOkJ4xBgSf6oja66tQLA30cz7PZDIsnPBx4uJa3Be9b2JiIh1I8g4lbqy9m+pHRC0yq+t9Fdi+oTuKe2SYkN7UdvOyWO4PgupJNptBR2o6ZgVciV2tonUGCsOpn9RUcSGMk0kkH/Mjo2IM2K6DT4UQiSvVDtBZLA5OC4uPe3iP4WWR21g1gT3KbLE9rrR55bV+sX8Ldy12xUlc1fi4tQhvw+xGUj47nmPGs72qu65C7IbGgdmPFrArxIQWnWHUUTHeoDrh5aphN1NDz02ne1qTAXJHYQ2bIOyZ8nDNopdtxRMSjj8eu5dsL+yw3E1ZR9Dskyc3TorpfAiTIcoIbkCi5EUxux0mA49rohjQOZiOEdZnJzjR+fnOkOxNKZjT9RklGPWpEpOkXM7Q7CMB2awYqWs6AyVaC6Q+SE6GA3rMPr98mbz8Ofn4POToEMtTBW3Eo/jO6GWLI/EJRve4yt5i0nS7vbAHIuNBNSWQmivVOWcSjRR2g5hQ7wwB2OTspvNcRKsYqQf6KS75VK02vzadj+X6YPGx0mIysN6efflfnnIRIbjMy/bA2ry4Ot9q4WaV6MnJcdZknwPKfZYdQfAufsXaq9rzOqKURcKgQG8mE/p1PnifHyvaufr8EswFcH4+vpO1g6xSvdQ1HfVD7U72faBf/LLwnzEs/HgN3M3eBlfs4p3/XNye0/uQbBQqxz2pN/Qa8J5p5gTBlaHh6GRjgc7UJhCfK4rxdtURTPRt/Gxq83M68Usa0XOlmDYdhVX74D7kWeeHRdk79crPvWUVoajEm1+9B6pTA11da2FxA+OYGwQvGxfeA0Chc+Bd6EW+qni50lYsAwkdWDGeS3UEE30tOeLOpjY/p3u6k6FxOVS9D3QBiF333dh1fH12NHxs5afe/UvpUYh3HLVF6GVn4+xqpOo7WV2fvFwbFzAGa8hGYQBsIXm2Ex8/WFcZWtckYjaICl4nEdikdq+zHoCnYTdTQ9/kerqT0RcPZ1D0P75Ag/oW9OdrnRi+MXrDg1euWDHRo+5QiXctHQ8z+bswGUfbnYwBfUoObf1npv7ceR5x6+IK/VcSskHE7EKUIg0gNCAEcHiagX4CwgEMT6cgH3j+AU83IjP4ZBLuGykJwxwhkqote2KihkFDASZ4HSLgEXuw4KZddjse0rgY7Qs6a0evG9n1XnyyqZoIG9X0yBtA9UFMBl9JJ1oLgngDZCIwk++DKM2muKToYm+1pedkFgOrgFrFSlAmCo2iGAM6ndipSmUyzzsPYBfxUwzoMtzYvKGM5QNZMfJk7PVs7VRwf726odIXsJr6BgzN6ZHZorNu/tqV550y229NmhiP74Qbntw5jOZvx0S8D6el1RvE3qk2VN8AyJKqeSFHwRhUbabALisW2C9i2+WiAGooqEVnwZLX3JOhPIiC3QOuea7FRHwZd4S+fsWCW+8IektCqZ7FmifijlV7hFtXvSaMxBMwGS/lawTtkx83D6sam0KqXJCmLXeKVFudA98lyqeQpXQrwGwqqJOQc6W2uYjVr8Jit4TDVf6VrNP56Mj87e5YMfHy1i0hxok83HHttqE7s00oR/kOqEaq17KCN9dzrF5WarZaI0Gm8DN1LObj9vcOuAB4Xrht9SEwHIjfvPG1Ojq9Tbev0rpZjaVa+4FmtbdZdLFRW+wGg8CyKdBOchfbxi+xT91VfSpnB66MLpoEahITtqHDZBR45/Ocy85+U98P+7xW3r5mQRgdOxS3094U7rnuyDBGT0aO4n19CUd81GHakFWWn/zDWHXIYSPHFj+c1FvBw2VVgZ5MdFTAcYwLnc7SFTPp6S8t2FST2SZqrlSBWsVKqIBsE4CXCeG2vC52H/eGIts1sSmj1ox2pA29bzIKCtZ5A75BlYevFiMLPlERJSne/1svCvcVvx7G570RndqXj+cFfHnbEQ6j8u31yETvBlmTqYMbytnHwwpapFKLYUqxubbFc7oWkVTdWJSPJpsO0nu36QgNPZsa2KYOHcYtiF90ivwTPzn7uP9OceBKDyzPn/8enEr+Nk6598ZfOr83OhH6+CS2VeaQ+mQBBuit30ZQH0dfPMfTl3y1oVbR0aauqE0AXDmwbws/zrIynO1gp+WNzOYcE7ssoe8zqc4ZQJh38A5NFj976SdPvFEp4l0nj4fu6r/AfvodmBDZXzg/A5Lg9CxK28sM8zgnNyfATCJw1SLPydnWL9JRsQBJ9s2mvS82A3Cl3gl30z1m/3R0jdivGTZAHwmyJ0+8vG/GNN86vqD7BVXFC5d2Q3fNB3D2clI1GWL1HCyrF+o+mwP4/nnZ+ko8wJuLCFytRxZXqrh4H1L4eCYP4kwUrTzUuYyuwTATmIo7ZTUVDyVEbUHIRG2pBdmqIx/80SluVhb/tGJiWfW09z5b/xom/j3YReFNKi3KK22LwUI9ptkUKxhqtvaVDcIhslUt/GSrZk44XYw+Gzs0YtcpKpeWeKSiftME5OFqYsvxrapf4GFqOQX1wcmsBXo2eXuLziclFtNZL/6HMTzwuvng+DtsGVvVOmm8g/gkpuGEsRZLMGxSHmo0ZFHJYOpjIoqBnHPYvE8znnVLBMa2yDlmpCgvoe7h+2HjuInG36+ldiqtQYwdGMi+qX6uxmu3d+TzO/ebaqb7epzR4c6yatbDYTiHN9EZnVjvl+cXEFctMvOKnmQnJpNTNHPDAHEymAkVmVeZjwi0hYxmV1Arx/svq3G6eXfabqBpBuwjgsJ0JvT54ZbMLfOx+VGQeNUpI/g8+G/g92hqorRwMJXweVng7MayYCqFSa39UmWTU/VNzibO58PLzTFYt0TwPF7uiwdjWT4Zig5/Fyyfml2Dd+AyfEQMhtaAxMaMqVZRdeRjfoqlW3/xgc70tmlXuNPDeKWhfF668CU89YqKCFwNkJlbbVKzK2QftyYrtfo1YhmWcA1O7ZPGoJqKxxHG3FpktgmgKXsekmnriOHmMFnw7f78uIVvxRfE4nVQ89pMsTma8KV2U6fB+kDSUZzyxrD6kel7072HooMve+b0KpjYhc8q5TMFCSiO34nJ5pZmM6EyssrrnezEWizybibOGOFkfg3ZY5jDFmIxxzp/Fq7BM7588pNPTGRlN8/oCP9w8tIg5KwEbTqJwZVgGZ58cOMqTQbZY7YFXvwZNzoSxMViON9kSzxGr86UKEtWU6ZYHDAJJove/KhNRgagrosVf5/BucDX3EXgqkVmGgNLbFKiZNkT+FsRFq+cpCb/bLh2sns9nkS5gyN4UkJQ1KaumRSBCZC9aotej17KlJtJrmM6oia/6pmXjN7HMXu1l9nPFv3uHuvH4mV2B9Cwc8gWSsBcOZknn0AoTTnGu6C9HLfU2IEn5JrPvP4JXFH/V57T40ZCRM4kc9PpPKFiaxjywV+1fRAP9pQEIluqktCQ0ezrMOm4kC85S/Gy9kPJGSZYk7VNtZeVsFF7fpLFhYWmzG1RDpKJvslJt3bz7OvZwZfhpCoVnhASy5h9BR6Pix4VmD05GTyhAmsYbqhljlpwNV/idy5eJrVv1/oBQ83WBM/B6Uy1sTX5Pc7kvqDSjxY9+XhOkulgnmcPhzh9rlGSShtXfnLZQzi4/wmusIFO/9dHqkiqKWgTQ7qkTvbaJtKweVwypQ43ObytRbY+kE37IzhWEZ9yepnUojccCVScvsYJPfmwWWqVzY0VzDKQX+NmGX6HCu/ODln5YHJIS5sQas6bv8M/4PrhR3ouZkDuiAaT2ndGB1HTmXcSvM3LZNVOmswA8Rsg9yUrwS2hzq3Oz0EU3B/b/CBsiGx0AqaqbzwSTvV0vMjDueHJ0QuqjiSpNiH4FW8Kt2j/DEf9h5rA1HZBq946k42gxX2Ar3aSPJruNZs3QrZmQzYeARhOu+QUnr8iTEAHq0wtSq9iT6fw/CrTZHSzH+KX2rOyl6/o+9W0NiHEt2oBHfGzs7B/S18bUCLtFcdzQUnf1LFPyy5rrg7PaWuLRw4aW2SrBN/aLwKh2LhEroXQBmrDiY6rpqxtqZv8mjv6rkMnuzD0en+YHXzpAwRrlr4JoX8ga12cPQ+nwR/GxKxNv3BqQHJ3QS0hTmcDaIYi1wE40s9pUy7CDZBJzTYBNOW5+JWSOSxAPZbxC9jBWDOIXzvcyVbh9tE5YbY8KTvsSvt9SNis6psQslx39tvW/uTsEz8d8+5x+AeaHsbE1AfL7uiRHzTp0ClSNfuqcK5pMbDzc9k0HhO4IBKNq/XIGxybYgkX+VCxJtlUIUqzEc416ExqFCnOsxtwHvubOGZ8IHvJFfeR96Di3nPoh1xx1gnfP/yMLx+F7ey0LC+PxMNs+AJOmI9nkfFVJkTjR1ApKgp1JG1OfEaXlC1L3+GmuWZzA6MMWLMhE0eWrcZlJ/0La4aqXQdxX8lKZukvAfQHS2jrNmqTkgrFUx/nzzoB8d6ZMVhwYxpuT8DxpjBV/HvYYd53sz1W4OG89Zc5JwQDjZfh383Y7/iJd262+177d8r8EHThV0G7E/6ZO/wOnl66ok5rn2k3ySXPbtrzqK3Klee5TviEe5kgvu1lTohyUHJa5Dx+BwfKz4cil2d9cKz0D5moS612Owc6tGrO0xMWDmkGD6rs5Kux6P3DDm4ZlbiDvqbzcPjRxQ9nE5qQymUuae4JEc8bl0/Qjcer8VDbNUvDbqOrJxeMzVs160bU/8//FeNTU8uXnaz32+Fumawnn2L4CfDyXJNBflToa6f0XEDsXJo9/9v8M2gy/O9cbtCE2NDwlOEKfDMN7Q3a/MyPv+bl5q8y1CfDT1ptMmoOqcHzK5OMf74nPNntxPPxCOimKMcvx3uxtc5tiijM+dQmZGN0w28BXq5NABJtG5QmnYK3yrRPeVGYt+4Pwv6TPfdVQezO3QZa6zt2q7Jnral9g5791nVo5ZFXxfO3vyhbtnwQofd8RvKQJgQrLj/UblmubxnPfGJeirk6opZl4tTdf40f+aJutNpg0C7SCYtOWl6cExb+DIfT2nQ/o8QPch7OhBRYseQMjDtSS5BmgCwuIU1ZzJYxdnO+fNrH7IA4fY2HQgyyQW+mhkzvkIR98He7BNh0lW6Umy5Ck7mWEBgtCV5uUfapnMJzepliO9gGTwb5cYEzbUn0AgvNxxDKcLYQHgi2f58sL9fWYiTBkigCVy0y8RqW5FrD2aD3prniGU4ErnTfxQPZpIvhbSE20GbiqK1jNEEVzqYqh2FR2k7NTtaGYDJxSJvW/NroPUhkrrCgz/INqQxxC2kbEQYrYzerJoEUg2S2OceBW4ZykAMV+EScsneze3AxdwnuKz0RxvJ9w0xxCJK+LWyYIuH1sZPzUJZDnBBKhgxWh2ZNEaydcmfJYbwzOlHzp5S1di0enLLsSaT8c6Ezc3a23+XV0/jXvexluMD8GJ4ePJwnhfl9EGPf5EJto93k0SwABuuTRWO3JJCNgLxIlYjszn5qo9rJNc6aE3D02nP+tbBw5Ew/Gcx5wEWX4PeJD2HHdE8tNhlTvCzcNzmU3dZwJoReO/D74VqufIMSwFmgheXaBA/1yddJSV6SRGsk9yzQc0//lu31g777PDgjL7MX/vhibEE/TTdMxbcWQ/k2bT2cCeliQnT9qg2ylmHLe33IgmmdKE2c82jyawj658Bn4p0O2Sb+3K6Xmjxt6E2gG86E4IdI7LtxS1qzg5GQbM0WmW0CGCRTQpqclqQGJ15gxN2C9teb1SeP8i66xFW9v+hU3SaqhzMhvXg3+o/fB6T4JNKs2PgbMsHZZgBVJCLP4+U2ziJuhu/AHZ4c+5fxxqULcWNkSd9r0DXefr+NrRnOhOz7nbuxb74Uv5zV1+hm4mx0MgGcDDcZPjlermYUDMCbiwkUdxy/U7wpXrsUX8+rl3jZknlhavZ38e7KAWap+GfwG8e9Yel2Le9VG3qjCbpn32iEg4jiLUfTF9Muwdd0FiZMS+I4f5JEL5NDlaC63JwAcbdZqfPQlcZFeLLmXGwJ14bZ6ckw0t0RZ1/H8DuPZdyB++ZjdcL9+AXqrdkhl16Y+r1pl8O7DnnekuvDrZedirUNb1GV+MaKDkwEnzgvE8wnyMtPZTJSmAxbwZF4re4gbLGPh5GRHk425mEytrXX7Dw/ra5ZuBifRuGXabTHm7Ie2haig4i3Hn0OEvBunAaPtK7Fc03GXBOQEi5h0PA8ZhOhZjMjfCFrkx9myx7BSxqLs8Mvx1YynDKcY4gfS5z+GG5dfAa7jjV8KlxLDgE1IyQ2ZGtCMLnuwoZWmyi58jLFlFL5Fbi1cil+Gj5qmJNBvRj6FkJB4yM4o3li7GhsKR9B8wA7s2lOAIG5IFOWrDlkwg7CmU0APhbboKds5HjKIWZfhHx2dsjlN5NpmOVZmRAdYLztxZuH3sLTkIXTsTXMxwQlk0+Wlynb6004UTRwojJn5jCihKfnp0L4Gb4cd9qwDuAUsFme1QnRzsSrX7FbGA9vxA2M1+DgujsStwOumOlLqfQ9J4E1kqxqtg6yCcg4LCIEfIMlRPqmIh7pjDfgqcKvhnzhD7IXfm+top6N+jkxITrweBW+bTg/vABvpe6Pa5b9cWW9Ny7WdsNuZEfs1rbBGVrqL31WlXLNf7pVEYtMAMHoN3EdXcLTs8qP4A8HaHrrOL8Z8Bvxpv714aBd78yyTf8AA/VwfUW7vD7cUO1YofEv/y0dw7X9eJjF30i5WSjzbXhiOgGfborbQd4q9IotkXV83BifCKE9Tonpo987QqAnGR/HpPwSp7kPY8u7Hx8kezR0Oqvwaf1JnOhOhcnV03g3YygXe08lef8DQmyyiUa3nUYAAAAASUVORK5CYII=;" parent="1" vertex="1">
          <mxGeometry x="560" y="482" width="30" height="30" as="geometry" />
        </mxCell>
        <mxCell id="4LUnRma8o_YQ2aAeQ-uo-28" value="" style="shape=image;verticalLabelPosition=bottom;labelBackgroundColor=default;verticalAlign=top;aspect=fixed;imageAspect=0;image=https://seeklogo.com/images/D/dbt-logo-500AB0BAA7-seeklogo.com.png;" parent="1" vertex="1">
          <mxGeometry x="555" y="420" width="40" height="40" as="geometry" />
        </mxCell>
        <mxCell id="fKt6-CcrcbfbB7j15rGw-10" style="edgeStyle=orthogonalEdgeStyle;rounded=0;orthogonalLoop=1;jettySize=auto;html=1;entryX=0.75;entryY=1;entryDx=0;entryDy=0;" parent="1" source="fKt6-CcrcbfbB7j15rGw-1" target="4LUnRma8o_YQ2aAeQ-uo-15" edge="1">
          <mxGeometry relative="1" as="geometry" />
        </mxCell>
        <mxCell id="fKt6-CcrcbfbB7j15rGw-1" value="Data Loader" style="rounded=1;whiteSpace=wrap;html=1;verticalAlign=top;" parent="1" vertex="1">
          <mxGeometry x="360" y="370" width="130" height="130" as="geometry" />
        </mxCell>
        <mxCell id="fKt6-CcrcbfbB7j15rGw-6" style="edgeStyle=orthogonalEdgeStyle;rounded=0;orthogonalLoop=1;jettySize=auto;html=1;entryX=0.092;entryY=-0.008;entryDx=0;entryDy=0;entryPerimeter=0;" parent="1" source="4LUnRma8o_YQ2aAeQ-uo-15" target="4LUnRma8o_YQ2aAeQ-uo-12" edge="1">
          <mxGeometry relative="1" as="geometry" />
        </mxCell>
        <mxCell id="4LUnRma8o_YQ2aAeQ-uo-16" value="TRANSFORMED" style="rounded=1;whiteSpace=wrap;html=1;" parent="1" vertex="1">
          <mxGeometry x="490" y="244" width="100" height="30" as="geometry" />
        </mxCell>
        <mxCell id="fKt6-CcrcbfbB7j15rGw-8" value="" style="shape=image;verticalLabelPosition=bottom;labelBackgroundColor=default;verticalAlign=top;aspect=fixed;imageAspect=0;image=https://seeklogo.com/images/D/dbt-logo-500AB0BAA7-seeklogo.com.png;" parent="1" vertex="1">
          <mxGeometry x="405" y="420" width="40" height="40" as="geometry" />
        </mxCell>
        <mxCell id="3HkjhWe9T4AB236vjEX6-1" value="" style="shape=image;verticalLabelPosition=bottom;labelBackgroundColor=default;verticalAlign=top;aspect=fixed;imageAspect=0;image=data:image/png,iVBORw0KGgoAAAANSUhEUgAAAGQAAABkCAYAAABw4pVUAAAAAXNSR0IArs4c6QAAAIRlWElmTU0AKgAAAAgABQESAAMAAAABAAEAAAEaAAUAAAABAAAASgEbAAUAAAABAAAAUgEoAAMAAAABAAIAAIdpAAQAAAABAAAAWgAAAAAAAACQAAAAAQAAAJAAAAABAAOgAQADAAAAAQABAACgAgAEAAAAAQAAAGSgAwAEAAAAAQAAAGQAAAAAPYM/1AAAAAlwSFlzAAAWJQAAFiUBSVIk8AAAH/ZJREFUeAHtXQnUJVVxvt3v/css7DtM2FEMi8gAOmBkVBTlYBKJDIoLJEaMR2JiALfE458TNYIoxiRGyGLUmBgmMUHjvjCyijDILjuybxJgtn973Tdf1a2qru7X758BZh4kJxf+vnWrvvrq3rq9v+6eEP6/PKcykD2nehNitvfvf3t0i/kj493OuvGQ55vnMdsuy8OusYy7l+XsoqwMO4duvlWMYacQ4/YhlgtRdzCOmZBnj+ch3A/bI6EsH83y/J4Ywj1lKO7MsvBQtxh7IsvXTHbHd55cMbF0OoQM5udWeU5MyNKJie50WLx3VnQPirE8MGThBbEs9sizbJdYltuGvIOcI3exSHUgWXKpNeeVdDIkVBlmgf4DJ+HXQEWTdRdAt8J6NSb6ulXj5Y03Tiybea5My7M6IUsnLhyfKde+sozhLVlZHhhDtgvStxDJpxlAjiKlPhVLvGmqSWEE9GZSoU2HIYMWcdZii3oIjZuzrLN8JsQLVp657EkN92zVz9qELHn/Nw8IY52/Rgd+rSywgsoE+KRqWpONUmQawWva2hLfpiMKx0F8+D/rdLE1xZ9jazrjsjOXfVNZn4166BNyxMQFO8fYfRf2Pqdh/z+Pdyc6ckuWbBmcO02g1u1JTRSKQa1iJbROhgFp95ZlvVDGf8263TMX3RluWr58WaFdG1aNY+DwyosnvrV5LEc+HXvlGbHszT0Z3C3NqtZQ2qQRoC3xg3SOw/ycDseZWBRdrApvjkXvi/fsXr6SuzDkxfAmZGIiz2P4SlmUy7BVjNXGaUl2W4bTGdZ0pBmUeEVLsqlyea/8vBKyNmliyvKgLJR/f9ipX9pD2YZVD21ClvQOfUcWs2OxGjZ2k5SJrIdT1PuxL/8Z/lZmnexunBxN1ZJQmwxYNIEmuKSajhgMmGTfJDPZTSdCLDNsLYvysc73Dj3j/B0ZNqTFUCbk0DO+uSP20CeXvdnGsCgB2bq80/lbdOQNM5OrX722l70qj+WxeZ6fhd36I+xQmwxKoGbQ1SpW2XU4YiE/qQ2jOtVTLSXF2LsTe2fgbLCr6k1dDyVQd7x4foz5IslIGlMacIHE/3OvmPnwT//8uMfcYB9fPPGNO0dmYsSl2wewI5NdXFsCW3SWeGX0mDYdOzQmEM2yhwN955g1a+79ArxuUM9NWQ9lC+lkI1vj2mKeDUTX8Cw8UJblPzYmg2ErJ163LobJv0FGHkx+PqmSQFvrCaG6FplNtFAMahUrgRxdSRgc73YaDyMHwtDY1TroRhSHMiFFiTU94GqZik4GJSLLH50dy29Jhv7lFR8/8WGk4eds6UtgSljyMqPjJ4tinN10YueKcG0YXKrGuLBX9vbBbotuz2zyMpQJ4VHQeG3Q6WwKV8vlaJiUmWofKxJC90vE6GoVdQ0njOEITm2pxbvSOX3NR/TODz2luwZbzHvs+v9LE0LXVzxKrk0q4zZhamw3SkNbOeJ9F2xWluH5yWZeFZVyqslIoGCdN6iOQKJfz2RoXFop7tlmR09mkTa2MJQtJIu4Z5vhKgTFRoVkxFDuEvPwZkp8c2D7TZw/WnTLk7Gr28V5OdGYPGuSvYmJoTCdCY2QivH2Nl3DbSM3hzIhOKunyy3+L+VHBh3DKCbl7b1u+cHF7z9/Vx3bUe///habTXbeGYridHjOT3pKjibL/J2OUISROglOp3pSEU44GOf9CEdFdak1rOVQTnvTYCQBtUTAUsYtcWr7RyP56BuX/PEFdFt8Zk1v1b5IyE6YjIWWCM2fJZospkyyb7IjFKYTweI7fzYZ0HGpbignWNzjIU0IjiE0NkuGDJQrPsCPhbK3B36ESrcqRM89JEeBO8FxEUoxBnQ6sVNVK4Llqs3P6+Y876ixPtPGUHZZgedDB6g1dd3L0mSV6lGrWAlPfzJshZC01WJJf/p02IgFPoxqSFsIhsKjkuw2B11LlGBsrZdEWaV2UTS5Wv0aPhvKpf3CPZxhleFsIbjPix+AXFacWBup6lGrWAlAmjLJ3GzTEanofVhSUxno57jEL2mGt40MZQvBzcKyzPIpnMJOcjJshcNwacS8BrLA+aIfWKvnDwjcxJFKMbi8TBdvIxCEmbjaivDUTKpzPrXJIPBw1luKNJQJKUZHrs2K3ul5meMmIV0kSt6oB7zy0cLpSD+wkD+KVCTG2FuM8+q3I6U4K5PE1rYM1TGaFlKgZ5PYSVubDNGXG9o35X369VAm5IqJY+5DF5c//W7O7bnk9H9ZE/PyLTiFTqfJG3MyaE7w7NGwylAmRAbjVsONPLwcM4BHV7hs7MngTajaQuJtrx0LnZEtQz6d9mPrGmOhy1jSbT5/Jtzz0Lqw5PIp7JE3eOxPaUKOP//8zv3XLlhU5tmiUBZbY98/gmM17bmj34VQF/ELIDpR7VfwnFU1KgJIyXAnWGWqcTHYilMuvQWjbfYpysPQg9HWYTO7DwG5qZMuJJRgmxjt5Ejn4DBbfCQU3S159+YzSDxTOLjhDCasm3osbLvF7eH2Y66KtxeXh72+e8eGTIyn05B99eJTzh3pbr/zq+67Pn8zNt/98zLgycFyHKtlh39C0rXTPHGYdXORMoCOylglI4zmB+CcX1JiF6HTUpsv8OI+TIK7iYtxFMei6vihgfqSCkVTt97JIAd2SmHzuDnaL0I8PDXp9F6mA2MaP1bWYhXG8otw+2u+FB+ZOi/bfsWaRNS+nHtC8GDC4TOHHogb0H+FNfOIssBPsLj9mrqB5LCAhXVmUAcJox1QoU0HjHIxrA2DwSqFCuqjIahWf9MplzlbrKQRPVeK0dpINNHmmyweB9maWAnLsAUwLwwj4VPhidGXxwded0K28zeaOzoLMPB8Dj/ILDy8POS92Aa+jd3NEWUPD7NhMrQDVUyVtAailiDozaRCm26QH/nM4deMRViGqw/1uEUnfgklWK5E1pjaJBotPibJhplDnuGt5tiwevrH8bajD4ab7gOUlevWCVky8Z2tZ3qTn41F/CjuuO7ICbZOYMtQCqdjFRlMR5pGBxVUEbAmqU3p/Np0hBZ9M5aZ2vycTvySRrnM2fGTbq7iOFvHSr4OU2BSeuXiUMRPhttfu2cbc9+ELHnv+fNCUf5pGWffRscJdrKBzzEZCehioCPWFxVadGQyfnJXjPp4nchcNexmaui56XRPaTLIz/lSDC3EY6YWmW0C8HKJLaNXviLMzJyhVL7um5Bs4YIT8LTFSQiWfrK0ZMlkELnTMVlNRxoouBMiK6hP5+0iM8aAUEK2pggW3/mzyYDOz+nEL2lEz5Vi2nSgsl01xUNpxlf31r6yA7vZONg/+514/SuPTYZqWZuQpRPfWoSzng/BMf2CZ4HdllGxViymIxV65zvIqBYdYYy/6cdOBOjnqvkIjuPxolI0deKXUIKtYebQaXf6aviImxOAauFq4so4Ekayz8SrX7udp60mBGdU00U4E7upffh+hg3cTYbTMQkFMZ3IzcBtSTVnFshRxsCEolQdNYXUx2KdYsTOni06+BEioQTLlcjG72KRjswcs0oTh+CF2L3MdLzQYAkuKlNSm3jLuFcYmz4pgdLSIh1evHhx3u2eyEBHUIkqaU0E65NhN4gJqTPWC49Rpdc5PzVrzSZvVz+nk8lQF65rfoKt6WpoNPTs0ukthAmV0VQQvEwIbouyh7oMx8Wrlm6rzjwh9AYTLrV/r5jB47S8RphnIphTJ9hmYIrcp6MOmZIagiGd6lUnvFRRMT/BMlx9GOC42IN9KkSbn1i5qpD9KyVuXd54k5Diiq/WF+qbmGw81DZlJbfHwVbSeYky8IRMT++/Nw5ch1UHr5ZNXAM0SQd1wvojAlU2EAoPhWG0O14nRvKp+SXXurP6iQ/Tu12tBmKzYqSu6dhRO8OBcB+kyEO+brv9mptJ0x9t42ramEoXid/GFLcOeXxJvPH4UTLwhOT52GLck9hdkI5XiFsHRGjYFWIC6VSptWBTAOdHdsWgVlEF41F/xRiwwUU4FPhVCJG4Um2bLvlVjgmD5XTezR9ZqvutoqScpYs6hnguWLT02QRHdj8uvL2EY8mhoXhwAZnypRNfGC+zbDEuHHGfsmUgVQ+JiXyqYk0VUKtYCfUOkJ4xBgSf6oja66tQLA30cz7PZDIsnPBx4uJa3Be9b2JiIh1I8g4lbqy9m+pHRC0yq+t9Fdi+oTuKe2SYkN7UdvOyWO4PgupJNptBR2o6ZgVciV2tonUGCsOpn9RUcSGMk0kkH/Mjo2IM2K6DT4UQiSvVDtBZLA5OC4uPe3iP4WWR21g1gT3KbLE9rrR55bV+sX8Ldy12xUlc1fi4tQhvw+xGUj47nmPGs72qu65C7IbGgdmPFrArxIQWnWHUUTHeoDrh5aphN1NDz02ne1qTAXJHYQ2bIOyZ8nDNopdtxRMSjj8eu5dsL+yw3E1ZR9Dskyc3TorpfAiTIcoIbkCi5EUxux0mA49rohjQOZiOEdZnJzjR+fnOkOxNKZjT9RklGPWpEpOkXM7Q7CMB2awYqWs6AyVaC6Q+SE6GA3rMPr98mbz8Ofn4POToEMtTBW3Eo/jO6GWLI/EJRve4yt5i0nS7vbAHIuNBNSWQmivVOWcSjRR2g5hQ7wwB2OTspvNcRKsYqQf6KS75VK02vzadj+X6YPGx0mIysN6efflfnnIRIbjMy/bA2ry4Ot9q4WaV6MnJcdZknwPKfZYdQfAufsXaq9rzOqKURcKgQG8mE/p1PnifHyvaufr8EswFcH4+vpO1g6xSvdQ1HfVD7U72faBf/LLwnzEs/HgN3M3eBlfs4p3/XNye0/uQbBQqxz2pN/Qa8J5p5gTBlaHh6GRjgc7UJhCfK4rxdtURTPRt/Gxq83M68Usa0XOlmDYdhVX74D7kWeeHRdk79crPvWUVoajEm1+9B6pTA11da2FxA+OYGwQvGxfeA0Chc+Bd6EW+qni50lYsAwkdWDGeS3UEE30tOeLOpjY/p3u6k6FxOVS9D3QBiF333dh1fH12NHxs5afe/UvpUYh3HLVF6GVn4+xqpOo7WV2fvFwbFzAGa8hGYQBsIXm2Ex8/WFcZWtckYjaICl4nEdikdq+zHoCnYTdTQ9/kerqT0RcPZ1D0P75Ag/oW9OdrnRi+MXrDg1euWDHRo+5QiXctHQ8z+bswGUfbnYwBfUoObf1npv7ceR5x6+IK/VcSskHE7EKUIg0gNCAEcHiagX4CwgEMT6cgH3j+AU83IjP4ZBLuGykJwxwhkqote2KihkFDASZ4HSLgEXuw4KZddjse0rgY7Qs6a0evG9n1XnyyqZoIG9X0yBtA9UFMBl9JJ1oLgngDZCIwk++DKM2muKToYm+1pedkFgOrgFrFSlAmCo2iGAM6ndipSmUyzzsPYBfxUwzoMtzYvKGM5QNZMfJk7PVs7VRwf726odIXsJr6BgzN6ZHZorNu/tqV550y229NmhiP74Qbntw5jOZvx0S8D6el1RvE3qk2VN8AyJKqeSFHwRhUbabALisW2C9i2+WiAGooqEVnwZLX3JOhPIiC3QOuea7FRHwZd4S+fsWCW+8IektCqZ7FmifijlV7hFtXvSaMxBMwGS/lawTtkx83D6sam0KqXJCmLXeKVFudA98lyqeQpXQrwGwqqJOQc6W2uYjVr8Jit4TDVf6VrNP56Mj87e5YMfHy1i0hxok83HHttqE7s00oR/kOqEaq17KCN9dzrF5WarZaI0Gm8DN1LObj9vcOuAB4Xrht9SEwHIjfvPG1Ojq9Tbev0rpZjaVa+4FmtbdZdLFRW+wGg8CyKdBOchfbxi+xT91VfSpnB66MLpoEahITtqHDZBR45/Ocy85+U98P+7xW3r5mQRgdOxS3094U7rnuyDBGT0aO4n19CUd81GHakFWWn/zDWHXIYSPHFj+c1FvBw2VVgZ5MdFTAcYwLnc7SFTPp6S8t2FST2SZqrlSBWsVKqIBsE4CXCeG2vC52H/eGIts1sSmj1ox2pA29bzIKCtZ5A75BlYevFiMLPlERJSne/1svCvcVvx7G570RndqXj+cFfHnbEQ6j8u31yETvBlmTqYMbytnHwwpapFKLYUqxubbFc7oWkVTdWJSPJpsO0nu36QgNPZsa2KYOHcYtiF90ivwTPzn7uP9OceBKDyzPn/8enEr+Nk6598ZfOr83OhH6+CS2VeaQ+mQBBuit30ZQH0dfPMfTl3y1oVbR0aauqE0AXDmwbws/zrIynO1gp+WNzOYcE7ssoe8zqc4ZQJh38A5NFj976SdPvFEp4l0nj4fu6r/AfvodmBDZXzg/A5Lg9CxK28sM8zgnNyfATCJw1SLPydnWL9JRsQBJ9s2mvS82A3Cl3gl30z1m/3R0jdivGTZAHwmyJ0+8vG/GNN86vqD7BVXFC5d2Q3fNB3D2clI1GWL1HCyrF+o+mwP4/nnZ+ko8wJuLCFytRxZXqrh4H1L4eCYP4kwUrTzUuYyuwTATmIo7ZTUVDyVEbUHIRG2pBdmqIx/80SluVhb/tGJiWfW09z5b/xom/j3YReFNKi3KK22LwUI9ptkUKxhqtvaVDcIhslUt/GSrZk44XYw+Gzs0YtcpKpeWeKSiftME5OFqYsvxrapf4GFqOQX1wcmsBXo2eXuLziclFtNZL/6HMTzwuvng+DtsGVvVOmm8g/gkpuGEsRZLMGxSHmo0ZFHJYOpjIoqBnHPYvE8znnVLBMa2yDlmpCgvoe7h+2HjuInG36+ldiqtQYwdGMi+qX6uxmu3d+TzO/ebaqb7epzR4c6yatbDYTiHN9EZnVjvl+cXEFctMvOKnmQnJpNTNHPDAHEymAkVmVeZjwi0hYxmV1Arx/svq3G6eXfabqBpBuwjgsJ0JvT54ZbMLfOx+VGQeNUpI/g8+G/g92hqorRwMJXweVng7MayYCqFSa39UmWTU/VNzibO58PLzTFYt0TwPF7uiwdjWT4Zig5/Fyyfml2Dd+AyfEQMhtaAxMaMqVZRdeRjfoqlW3/xgc70tmlXuNPDeKWhfF668CU89YqKCFwNkJlbbVKzK2QftyYrtfo1YhmWcA1O7ZPGoJqKxxHG3FpktgmgKXsekmnriOHmMFnw7f78uIVvxRfE4nVQ89pMsTma8KV2U6fB+kDSUZzyxrD6kel7072HooMve+b0KpjYhc8q5TMFCSiO34nJ5pZmM6EyssrrnezEWizybibOGOFkfg3ZY5jDFmIxxzp/Fq7BM7588pNPTGRlN8/oCP9w8tIg5KwEbTqJwZVgGZ58cOMqTQbZY7YFXvwZNzoSxMViON9kSzxGr86UKEtWU6ZYHDAJJove/KhNRgagrosVf5/BucDX3EXgqkVmGgNLbFKiZNkT+FsRFq+cpCb/bLh2sns9nkS5gyN4UkJQ1KaumRSBCZC9aotej17KlJtJrmM6oia/6pmXjN7HMXu1l9nPFv3uHuvH4mV2B9Cwc8gWSsBcOZknn0AoTTnGu6C9HLfU2IEn5JrPvP4JXFH/V57T40ZCRM4kc9PpPKFiaxjywV+1fRAP9pQEIluqktCQ0ezrMOm4kC85S/Gy9kPJGSZYk7VNtZeVsFF7fpLFhYWmzG1RDpKJvslJt3bz7OvZwZfhpCoVnhASy5h9BR6Pix4VmD05GTyhAmsYbqhljlpwNV/idy5eJrVv1/oBQ83WBM/B6Uy1sTX5Pc7kvqDSjxY9+XhOkulgnmcPhzh9rlGSShtXfnLZQzi4/wmusIFO/9dHqkiqKWgTQ7qkTvbaJtKweVwypQ43ObytRbY+kE37IzhWEZ9yepnUojccCVScvsYJPfmwWWqVzY0VzDKQX+NmGX6HCu/ODln5YHJIS5sQas6bv8M/4PrhR3ouZkDuiAaT2ndGB1HTmXcSvM3LZNVOmswA8Rsg9yUrwS2hzq3Oz0EU3B/b/CBsiGx0AqaqbzwSTvV0vMjDueHJ0QuqjiSpNiH4FW8Kt2j/DEf9h5rA1HZBq946k42gxX2Ar3aSPJruNZs3QrZmQzYeARhOu+QUnr8iTEAHq0wtSq9iT6fw/CrTZHSzH+KX2rOyl6/o+9W0NiHEt2oBHfGzs7B/S18bUCLtFcdzQUnf1LFPyy5rrg7PaWuLRw4aW2SrBN/aLwKh2LhEroXQBmrDiY6rpqxtqZv8mjv6rkMnuzD0en+YHXzpAwRrlr4JoX8ga12cPQ+nwR/GxKxNv3BqQHJ3QS0hTmcDaIYi1wE40s9pUy7CDZBJzTYBNOW5+JWSOSxAPZbxC9jBWDOIXzvcyVbh9tE5YbY8KTvsSvt9SNis6psQslx39tvW/uTsEz8d8+5x+AeaHsbE1AfL7uiRHzTp0ClSNfuqcK5pMbDzc9k0HhO4IBKNq/XIGxybYgkX+VCxJtlUIUqzEc416ExqFCnOsxtwHvubOGZ8IHvJFfeR96Di3nPoh1xx1gnfP/yMLx+F7ey0LC+PxMNs+AJOmI9nkfFVJkTjR1ApKgp1JG1OfEaXlC1L3+GmuWZzA6MMWLMhE0eWrcZlJ/0La4aqXQdxX8lKZukvAfQHS2jrNmqTkgrFUx/nzzoB8d6ZMVhwYxpuT8DxpjBV/HvYYd53sz1W4OG89Zc5JwQDjZfh383Y7/iJd262+177d8r8EHThV0G7E/6ZO/wOnl66ok5rn2k3ySXPbtrzqK3Klee5TviEe5kgvu1lTohyUHJa5Dx+BwfKz4cil2d9cKz0D5moS612Owc6tGrO0xMWDmkGD6rs5Kux6P3DDm4ZlbiDvqbzcPjRxQ9nE5qQymUuae4JEc8bl0/Qjcer8VDbNUvDbqOrJxeMzVs160bU/8//FeNTU8uXnaz32+Fumawnn2L4CfDyXJNBflToa6f0XEDsXJo9/9v8M2gy/O9cbtCE2NDwlOEKfDMN7Q3a/MyPv+bl5q8y1CfDT1ptMmoOqcHzK5OMf74nPNntxPPxCOimKMcvx3uxtc5tiijM+dQmZGN0w28BXq5NABJtG5QmnYK3yrRPeVGYt+4Pwv6TPfdVQezO3QZa6zt2q7Jnral9g5791nVo5ZFXxfO3vyhbtnwQofd8RvKQJgQrLj/UblmubxnPfGJeirk6opZl4tTdf40f+aJutNpg0C7SCYtOWl6cExb+DIfT2nQ/o8QPch7OhBRYseQMjDtSS5BmgCwuIU1ZzJYxdnO+fNrH7IA4fY2HQgyyQW+mhkzvkIR98He7BNh0lW6Umy5Ck7mWEBgtCV5uUfapnMJzepliO9gGTwb5cYEzbUn0AgvNxxDKcLYQHgi2f58sL9fWYiTBkigCVy0y8RqW5FrD2aD3prniGU4ErnTfxQPZpIvhbSE20GbiqK1jNEEVzqYqh2FR2k7NTtaGYDJxSJvW/NroPUhkrrCgz/INqQxxC2kbEQYrYzerJoEUg2S2OceBW4ZykAMV+EScsneze3AxdwnuKz0RxvJ9w0xxCJK+LWyYIuH1sZPzUJZDnBBKhgxWh2ZNEaydcmfJYbwzOlHzp5S1di0enLLsSaT8c6Ezc3a23+XV0/jXvexluMD8GJ4ePJwnhfl9EGPf5EJto93k0SwABuuTRWO3JJCNgLxIlYjszn5qo9rJNc6aE3D02nP+tbBw5Ew/Gcx5wEWX4PeJD2HHdE8tNhlTvCzcNzmU3dZwJoReO/D74VqufIMSwFmgheXaBA/1yddJSV6SRGsk9yzQc0//lu31g777PDgjL7MX/vhibEE/TTdMxbcWQ/k2bT2cCeliQnT9qg2ylmHLe33IgmmdKE2c82jyawj658Bn4p0O2Sb+3K6Xmjxt6E2gG86E4IdI7LtxS1qzg5GQbM0WmW0CGCRTQpqclqQGJ15gxN2C9teb1SeP8i66xFW9v+hU3SaqhzMhvXg3+o/fB6T4JNKs2PgbMsHZZgBVJCLP4+U2ziJuhu/AHZ4c+5fxxqULcWNkSd9r0DXefr+NrRnOhOz7nbuxb74Uv5zV1+hm4mx0MgGcDDcZPjlermYUDMCbiwkUdxy/U7wpXrsUX8+rl3jZknlhavZ38e7KAWap+GfwG8e9Yel2Le9VG3qjCbpn32iEg4jiLUfTF9Muwdd0FiZMS+I4f5JEL5NDlaC63JwAcbdZqfPQlcZFeLLmXGwJ14bZ6ckw0t0RZ1/H8DuPZdyB++ZjdcL9+AXqrdkhl16Y+r1pl8O7DnnekuvDrZedirUNb1GV+MaKDkwEnzgvE8wnyMtPZTJSmAxbwZF4re4gbLGPh5GRHk425mEytrXX7Dw/ra5ZuBifRuGXabTHm7Ie2haig4i3Hn0OEvBunAaPtK7Fc03GXBOQEi5h0PA8ZhOhZjMjfCFrkx9myx7BSxqLs8Mvx1YynDKcY4gfS5z+GG5dfAa7jjV8KlxLDgE1IyQ2ZGtCMLnuwoZWmyi58jLFlFL5Fbi1cil+Gj5qmJNBvRj6FkJB4yM4o3li7GhsKR9B8wA7s2lOAIG5IFOWrDlkwg7CmU0APhbboKds5HjKIWZfhHx2dsjlN5NpmOVZmRAdYLztxZuH3sLTkIXTsTXMxwQlk0+Wlynb6004UTRwojJn5jCihKfnp0L4Gb4cd9qwDuAUsFme1QnRzsSrX7FbGA9vxA2M1+DgujsStwOumOlLqfQ9J4E1kqxqtg6yCcg4LCIEfIMlRPqmIh7pjDfgqcKvhnzhD7IXfm+top6N+jkxITrweBW+bTg/vABvpe6Pa5b9cWW9Ny7WdsNuZEfs1rbBGVrqL31WlXLNf7pVEYtMAMHoN3EdXcLTs8qP4A8HaHrrOL8Z8Bvxpv714aBd78yyTf8AA/VwfUW7vD7cUO1YofEv/y0dw7X9eJjF30i5WSjzbXhiOgGfborbQd4q9IotkXV83BifCKE9Tonpo987QqAnGR/HpPwSp7kPY8u7Hx8kezR0Oqvwaf1JnOhOhcnV03g3YygXe08lef8DQmyyiUa3nUYAAAAASUVORK5CYII=;" vertex="1" parent="1">
          <mxGeometry x="410" y="482" width="30" height="30" as="geometry" />
        </mxCell>
        <mxCell id="3HkjhWe9T4AB236vjEX6-4" value="" style="rounded=1;whiteSpace=wrap;html=1;dashed=1;fillColor=none;" vertex="1" parent="1">
          <mxGeometry x="360" y="228" width="260" height="60" as="geometry" />
        </mxCell>
        <mxCell id="3HkjhWe9T4AB236vjEX6-2" value="" style="editableCssRules=.*;html=1;shape=image;verticalLabelPosition=bottom;labelBackgroundColor=#ffffff;verticalAlign=top;aspect=fixed;imageAspect=0;image=data:image/svg+xml,PHN2ZyB4bWxucz0iaHR0cDovL3d3dy53My5vcmcvMjAwMC9zdmciIHhtbG5zOnY9Imh0dHBzOi8vdmVjdGEuaW8vbmFubyIgd2lkdGg9IjIwLjAwMTA0NTIyNzA1MDc4IiBoZWlnaHQ9IjIwLjAwMTA0NTIyNzA1MDc4IiBmaWxsLXJ1bGU9ImV2ZW5vZGQiIHZpZXdCb3g9IjAgMCAyMC4wMDEwNDUyMjcwNTA3OCAyMC4wMDEwNDUyMjcwNTA3OCI+JiN4YTsJPHN0eWxlIHR5cGU9InRleHQvY3NzIj4mI3hhOwkuc3Qwe2ZpbGw6I2FlY2JmYTt9JiN4YTsJLnN0MXtmaWxsOiM2NjlkZjY7fSYjeGE7CS5zdDJ7ZmlsbDojNDI4NWY0O30mI3hhOwk8L3N0eWxlPiYjeGE7CTxwYXRoIGNsYXNzPSJzdDAiIGQ9Ik00LjczIDguODN2Mi42M2E0LjkxIDQuOTEgMCAwIDAgMS43MSAxLjc0VjguODN6Ii8+JiN4YTsJPHBhdGggY2xhc3M9InN0MSIgZD0iTTcuODkgNi40MXY3LjUzQTcuNjIgNy42MiAwIDAgMCA5IDE0YTggOCAwIDAgMCAxIDBWNi40MXoiLz4mI3hhOwk8cGF0aCBjbGFzcz0ic3QwIiBkPSJNMTEuNjQgOS44NnYzLjI5YTUgNSAwIDAgMCAxLjctMS44MlY5Ljg2eiIvPiYjeGE7CTxwYXRoIGNsYXNzPSJzdDIiIGQ9Ik0xNS43NCAxNC4zMmwtMS40MiAxLjQyYS40Mi40MiAwIDAgMCAwIC42bDMuNTQgMy41NGEuNDIuNDIgMCAwIDAgLjU5IDBsMS40My0xLjQzYS40Mi40MiAwIDAgMCAwLS41OWwtMy41NC0zLjU0YS40Mi40MiAwIDAgMC0uNiAwIi8+JiN4YTsJPHBhdGggY2xhc3M9InN0MSIgZD0iTTkgMGE5IDkgMCAxIDAgMCAxOEE5IDkgMCAxIDAgOSAwbTAgMTUuNjlhNi42OCA2LjY4IDAgMCAxIC4wMDctMTMuMzYgNi42OCA2LjY4IDAgMCAxIDQuNzI3IDExLjQwM0E2LjY4IDYuNjggMCAwIDEgOSAxNS42OSIvPiYjeGE7PC9zdmc+;" vertex="1" parent="1">
          <mxGeometry x="590" y="204" width="40" height="40" as="geometry" />
        </mxCell>
        <mxCell id="3HkjhWe9T4AB236vjEX6-5" value="" style="rounded=1;whiteSpace=wrap;html=1;dashed=1;fillColor=none;" vertex="1" parent="1">
          <mxGeometry x="230" y="228" width="110" height="60" as="geometry" />
        </mxCell>
        <mxCell id="3HkjhWe9T4AB236vjEX6-3" value="" style="sketch=0;html=1;verticalAlign=top;labelPosition=center;verticalLabelPosition=bottom;align=center;spacingTop=-6;fontSize=11;fontStyle=1;fontColor=#999999;shape=image;aspect=fixed;imageAspect=0;image=data:image/svg+xml,PHN2ZyB4bWxucz0iaHR0cDovL3d3dy53My5vcmcvMjAwMC9zdmciIHhtbG5zOnY9Imh0dHBzOi8vdmVjdGEuaW8vbmFubyIgd2lkdGg9IjIwIiBoZWlnaHQ9IjE2IiB2aWV3Qm94PSIwIDAgMjAgMTYiPiYjeGE7CTxzdHlsZSB0eXBlPSJ0ZXh0L2NzcyI+JiN4YTsJLnN0MHtmaWxsOiM0Mjg1ZjQ7fSYjeGE7CS5zdDF7ZmlsbDojNjY5ZGY2O30mI3hhOwkuc3Qye2ZpbGw6I2FlY2JmYTt9JiN4YTsJLnN0M3tmaWxsOiNmZmY7fSYjeGE7CTwvc3R5bGU+JiN4YTsJPHBhdGggY2xhc3M9InN0MiIgZD0iTTAgMGgyMHY3SDB6Ii8+JiN4YTsJPHBhdGggY2xhc3M9InN0MSIgZD0iTTE4IDBoMnY3aC0yeiIvPiYjeGE7CTxwYXRoIGNsYXNzPSJzdDAiIGQ9Ik0xOCA3bDItN2gtMnoiLz4mI3hhOwk8cGF0aCBjbGFzcz0ic3QxIiBkPSJNMCAwaDJ2N0gweiIvPiYjeGE7CTxnIGNsYXNzPSJzdDMiPiYjeGE7CQk8cGF0aCBkPSJNNCAzaDZ2MUg0eiIvPiYjeGE7CQk8cmVjdCB4PSIxMyIgeT0iMiIgd2lkdGg9IjMiIGhlaWdodD0iMyIgcng9IjEuNSIvPiYjeGE7CTwvZz4mI3hhOwk8cGF0aCBjbGFzcz0ic3QyIiBkPSJNMCA5aDIwdjdIMHoiLz4mI3hhOwk8cGF0aCBjbGFzcz0ic3QxIiBkPSJNMTggOWgydjdoLTJ6Ii8+JiN4YTsJPHBhdGggY2xhc3M9InN0MCIgZD0iTTE4IDE2bDItN2gtMnoiLz4mI3hhOwk8cGF0aCBjbGFzcz0ic3QxIiBkPSJNMCA5aDJ2N0gweiIvPiYjeGE7CTxnIGNsYXNzPSJzdDMiPiYjeGE7CQk8cGF0aCBkPSJNNCAxMmg2djFINHoiLz4mI3hhOwkJPHJlY3QgeD0iMTMiIHk9IjExIiB3aWR0aD0iMyIgaGVpZ2h0PSIzIiByeD0iMS41Ii8+JiN4YTsJPC9nPiYjeGE7PC9zdmc+;" vertex="1" parent="1">
          <mxGeometry x="240" y="204" width="42" height="34" as="geometry" />
        </mxCell>
        <mxCell id="3HkjhWe9T4AB236vjEX6-8" style="edgeStyle=orthogonalEdgeStyle;rounded=0;orthogonalLoop=1;jettySize=auto;html=1;" edge="1" parent="1" source="3HkjhWe9T4AB236vjEX6-6" target="3HkjhWe9T4AB236vjEX6-4">
          <mxGeometry relative="1" as="geometry" />
        </mxCell>
        <mxCell id="3HkjhWe9T4AB236vjEX6-6" value="" style="shape=image;verticalLabelPosition=bottom;labelBackgroundColor=default;verticalAlign=top;aspect=fixed;imageAspect=0;image=https://upload.wikimedia.org/wikipedia/commons/thumb/4/47/Apache_Parquet_logo.svg/2560px-Apache_Parquet_logo.svg.png;clipPath=inset(0% 72% 0% 0%);" vertex="1" parent="1">
          <mxGeometry x="250.72" y="238" width="55.08" height="40" as="geometry" />
        </mxCell>
        <mxCell id="3HkjhWe9T4AB236vjEX6-11" style="edgeStyle=orthogonalEdgeStyle;rounded=0;orthogonalLoop=1;jettySize=auto;html=1;entryX=0.5;entryY=0;entryDx=0;entryDy=0;exitX=1;exitY=0.5;exitDx=0;exitDy=0;" edge="1" parent="1" source="3HkjhWe9T4AB236vjEX6-10" target="4LUnRma8o_YQ2aAeQ-uo-8">
          <mxGeometry relative="1" as="geometry" />
        </mxCell>
        <mxCell id="3HkjhWe9T4AB236vjEX6-12" style="edgeStyle=orthogonalEdgeStyle;rounded=0;orthogonalLoop=1;jettySize=auto;html=1;" edge="1" parent="1" source="3HkjhWe9T4AB236vjEX6-10">
          <mxGeometry relative="1" as="geometry">
            <mxPoint x="344" y="259" as="targetPoint" />
          </mxGeometry>
        </mxCell>
        <mxCell id="3HkjhWe9T4AB236vjEX6-10" value="" style="shape=image;verticalLabelPosition=bottom;labelBackgroundColor=default;verticalAlign=top;aspect=fixed;imageAspect=0;image=https://static-00.iconduck.com/assets.00/file-type-terraform-icon-1821x2048-mbxeegff.png;" vertex="1" parent="1">
          <mxGeometry x="324" y="99" width="40.6" height="45.66" as="geometry" />
        </mxCell>
        <mxCell id="3HkjhWe9T4AB236vjEX6-15" value="" style="shape=image;verticalLabelPosition=bottom;labelBackgroundColor=default;verticalAlign=top;aspect=fixed;imageAspect=0;image=https://static-00.iconduck.com/assets.00/google-cloud-icon-2048x1646-7admxejz.png;" vertex="1" parent="1">
          <mxGeometry x="610" y="159.82" width="37.57" height="30.18" as="geometry" />
        </mxCell>
      </root>
    </mxGraphModel>
  </diagram>
</mxfile>
